# xmcd
#
# Track frame offsets:
#	150
#	30891
#	51371
#	70781
#	96603
#	115664
#	131454
#	155739
#	181936
#	211346
#	232804
#	253365
#
# Disc length: 3787 seconds
#
# Revision: 0
# Processed by: cddbd v1.5.2PL0 Copyright (c) Steve Scherf et al.
# Submitted via: EasyCDDAExtractor 2010.4.0.0
#
DISCID=a30ec90c
DTITLE=Joe Bonamassa - Dust Bowl (Japan Special Limited Edition)
DYEAR=2011
DGENRE=Blues Rock
TTITLE0=Slow Train
TTITLE1=Dust Bowl
TTITLE2=Tennessee Plates (w John Hiatt)
TTITLE3=The Meaning Of The Blues
TTITLE4=Black Lung Heartache
TTITLE5=You Better Watch Yourself
TTITLE6=The Last Matador Of Bayonne
TTITLE7=Heartbreaker (w Glenn Hughes)
TTITLE8=No Love On The Street
TTITLE9=The Whale That Swallowed Jonah
TTITLE10=Sweet Rowena (w Vince Gill)
TTITLE11=Prisoner
EXTD=
EXTT0=
EXTT1=
EXTT2=
EXTT3=
EXTT4=
EXTT5=
EXTT6=
EXTT7=
EXTT8=
EXTT9=
EXTT10=
EXTT11=
PLAYORDER=
